<svg id="Capa_1" enable-background="new 0 0 511.141 511.141" height="512" viewBox="0 0 511.141 511.141" width="512" fill='currentcolor' xmlns="http://www.w3.org/2000/svg"><g color="white"><path d="m297.992 372.736 9.227 138.405h68.713l-27.681-138.405z"/><path d="m109.397 511.141h68.712l9.228-138.405h-50.259z"/><path d="m217.403 372.736-9.227 138.405h68.976l-9.227-138.405z"/><path d="m139.781 305.374h205.767v37.362h-205.767z"/><path d="m413.74 63.728-70.253 23.418 31.898 20.99 31.508-10.503 42.183 37.019c-1.172 24.639-8.621 112.355-55.617 172.702l23.669 18.434c61.114-78.477 62.151-192.863 62.166-197.694l.02-6.819z"/><path d="m297.806 275.374h50.012l27.566-167.238-69.665 23.222z"/><path d="m275.454 135.353h-65.579l7.693 140.021h50.192z"/><path d="m211.085 67.362-69.242 19.784 54.619 18.207h92.404l54.621-18.207-69.244-19.784z"/><path d="m109.944 108.136 21.012 127.47 6.555 39.768h50.012l-7.913-144.016z"/><path d="m31.828 118.578 60.947 69.855-13.738-83.343z"/><path d="m263.103 37.362 4.671-37.362h-50.219l4.67 37.362z"/></g></svg>