<svg id="Capa_1" enable-background="new 0 0 512 512" height="512" viewBox="0 0 512 512" width="512" fill='currentcolor' xmlns="http://www.w3.org/2000/svg"><g color="white"><path d="m215.62 287.401c-11.763 0-23.523 4.476-32.478 13.431-17.908 17.908-17.908 47.047 0 64.955 17.907 17.907 47.047 17.908 64.955 0s17.908-47.047 0-64.955c-8.952-8.953-20.717-13.431-32.477-13.431z"/><path d="m374.758 137.242c-68.273-68.273-150.541-114.011-237.568-137.242l-17.815 66.488c10.14 7.323 19.88 14.098 30.068 18.847 11.091 5.169 23.909 8.354 37.48 11.726 20.402 5.069 41.498 10.31 59.677 23.068 17.523 12.298 29.477 30.022 41.036 47.162 8.048 11.933 15.649 23.205 24.76 32.315 9.11 9.11 20.382 16.711 32.314 24.759 17.14 11.56 34.864 23.512 47.162 41.036 12.759 18.179 18 39.276 23.069 59.678 3.372 13.571 6.556 26.389 11.726 37.48 4.748 10.188 11.524 19.927 18.846 30.067l66.487-17.816c-23.231-87.027-68.969-169.295-137.242-237.568z"/><path d="m399.475 375.232c-6.394-13.718-10.083-28.563-13.649-42.92-4.609-18.552-8.962-36.074-18.51-49.678-9.114-12.985-23.815-22.9-39.38-33.397-12.585-8.488-25.6-17.265-36.753-28.418-11.154-11.154-19.931-24.168-28.419-36.754-10.497-15.565-20.412-30.267-33.397-39.38-13.603-9.547-31.125-13.9-49.676-18.509-14.357-3.567-29.203-7.255-42.92-13.649-9.082-4.233-17.542-9.54-25.672-15.143l-53.084 198.1 42.918 5.623-3.897 29.746-46.853-6.138-22.826 85.189c18.823 2.113 36.757 10.478 50.509 24.23 13.752 13.751 22.116 31.686 24.23 50.509l312.522-83.74c-5.604-8.13-10.91-16.59-15.143-25.671zm-286.785-144.852c27.454-27.454 64.008-42.574 102.93-42.574v30c-30.908 0-59.929 11.999-81.716 33.787zm156.621 156.62c-14.803 14.803-34.247 22.204-53.691 22.204s-38.888-7.401-53.691-22.203c-29.605-29.605-29.605-77.777 0-107.382 29.604-29.604 77.776-29.605 107.381 0 29.606 29.605 29.606 77.776.001 107.381z"/><path d="m56.652 455.348c-9.988-9.988-23.395-15.576-37.195-15.963l-19.457 72.615 72.615-19.457c-.387-13.8-5.975-27.208-15.963-37.195z"/></g></svg>