<svg id="Capa_1" enable-background="new 0 0 512 512" height="512" viewBox="0 0 512 512" width="512" fill='currentcolor' xmlns="http://www.w3.org/2000/svg"><g color="white"><path d="m106.822 228.519c4.976 3.316 7.473 4.981 14.183 4.981 6.709 0 9.207-1.665 14.182-4.981 6.343-4.229 15.03-10.019 30.822-10.019s24.478 5.791 30.82 10.02c4.974 3.316 7.471 4.98 14.178 4.98 6.708 0 9.205-1.665 14.18-4.981 6.342-4.228 15.029-10.019 30.82-10.019s24.478 5.791 30.819 10.02c4.975 3.316 7.471 4.98 14.179 4.98 6.707 0 9.203-1.665 14.177-4.98 6.343-4.229 15.029-10.02 30.82-10.02s24.478 5.791 30.819 10.019c4.975 3.316 7.472 4.981 14.18 4.981s9.204-1.665 14.179-4.98c6.342-4.229 15.028-10.02 30.819-10.02h1v-30h30v-30h-421.999v30h30v30h1c15.792 0 24.479 5.791 30.822 10.019z"/><path d="m106.822 303.519c4.976 3.316 7.473 4.981 14.183 4.981 6.709 0 9.207-1.665 14.182-4.981 6.343-4.229 15.03-10.019 30.822-10.019s24.478 5.791 30.82 10.02c4.974 3.316 7.471 4.98 14.178 4.98 6.708 0 9.205-1.665 14.18-4.981 6.342-4.228 15.029-10.019 30.82-10.019s24.478 5.791 30.819 10.02c4.975 3.316 7.471 4.98 14.179 4.98 6.707 0 9.203-1.665 14.177-4.98 6.343-4.229 15.029-10.02 30.82-10.02s24.478 5.791 30.819 10.019c4.975 3.316 7.472 4.981 14.18 4.981s9.204-1.665 14.179-4.98c6.342-4.229 15.028-10.02 30.819-10.02h1v-45h-1c-6.708 0-9.204 1.665-14.179 4.98-6.342 4.229-15.028 10.02-30.819 10.02-15.792 0-24.479-5.791-30.82-10.02-4.975-3.316-7.471-4.98-14.179-4.98s-9.204 1.665-14.178 4.98c-6.343 4.229-15.028 10.02-30.819 10.02s-24.478-5.791-30.819-10.02c-4.975-3.316-7.471-4.98-14.179-4.98s-9.205 1.665-14.18 4.981c-6.342 4.228-15.029 10.019-30.82 10.019s-24.478-5.791-30.82-10.019c-4.974-3.316-7.471-4.981-14.179-4.981-6.71 0-9.208 1.665-14.183 4.981-6.343 4.229-15.03 10.019-30.822 10.019s-24.479-5.791-30.822-10.019c-4.974-3.316-7.471-4.981-14.181-4.981h-1v45h1c15.792 0 24.479 5.791 30.822 10.019z"/><path d="m437 368.5v-45h-1c-6.708 0-9.204 1.665-14.179 4.98-6.342 4.229-15.028 10.02-30.819 10.02-15.792 0-24.479-5.791-30.82-10.02-4.975-3.316-7.471-4.98-14.179-4.98s-9.204 1.665-14.178 4.98c-6.343 4.229-15.028 10.02-30.819 10.02s-24.478-5.791-30.819-10.02c-4.975-3.316-7.471-4.98-14.179-4.98s-9.205 1.665-14.18 4.981c-6.342 4.228-15.029 10.019-30.82 10.019s-24.478-5.791-30.82-10.019c-4.974-3.316-7.471-4.981-14.179-4.981-6.71 0-9.208 1.665-14.183 4.981-6.343 4.229-15.03 10.019-30.822 10.019s-24.479-5.791-30.822-10.019c-4.975-3.316-7.472-4.981-14.182-4.981h-1v45z"/><path d="m346 91v-37.5h-37.5c-20.711 0-37.5 16.789-37.5 37.5v37.5h37.5c20.711 0 37.5-16.789 37.5-37.5z"/><path d="m241 91c0-20.711-16.789-37.5-37.5-37.5h-37.5v37.5c0 20.711 16.789 37.5 37.5 37.5h37.5z"/><path d="m0 398.5v30h40.788l7.501 30h415.423l7.5-30h40.788v-30z"/></g></svg>