<svg id="Capa_1" enable-background="new 0 0 512 512" height="512" viewBox="0 0 512 512" width="512" fill='currentcolor' xmlns="http://www.w3.org/2000/svg"><g color="white"><path d="m75 150.039h362v40h-362z"/><path d="m75 220.039h362v40h-362z"/><path d="m75 290.039h362v40h-362z"/><path d="m165.5 108.537c0-14.309-5.078-21.851-22.75-31.576-17.672 9.725-22.75 17.267-22.75 31.576v11.502h45.5z"/><path d="m241 108.537c0-14.309-5.078-21.851-22.75-31.576-17.672 9.725-22.75 17.267-22.75 31.576v11.502h45.5z"/><path d="m316.5 108.537c0-14.309-5.078-21.851-22.75-31.576-17.672 9.725-22.75 17.267-22.75 31.576v11.502h45.5z"/><path d="m392 108.537c0-14.309-5.078-21.851-22.75-31.576-17.672 9.725-22.75 17.267-22.75 31.576v11.502h45.5z"/><path d="m0 360.039c0 41.355 33.645 75 75 75h362c41.355 0 75-33.645 75-75z"/></g></svg>