<svg id="Capa_1" enable-background="new 0 0 512 512" height="512" viewBox="0 0 512 512" width="512" fill='currentcolor' xmlns="http://www.w3.org/2000/svg"><g color="white"><path d="m236.629 240.631c1.332-23.491 4.714-73.049 11.934-128.832 27.552 51.42 52.723 93.573 65.907 115.121 3.491-1.932 7.096-3.68 10.82-5.222 5.764-2.388 11.692-4.248 17.749-5.581-11.087-17.978-35.354-58.15-62.753-108.685 22.134 10.771 50.113 20.055 80.829 20.055 71.611 0 128.381-50.456 130.763-52.604l12.351-11.139-12.351-11.139c-2.382-2.148-59.152-52.605-130.763-52.605-59.13 0-108.135 34.397-124.766 47.599-20.891-3.795-80.328-11.005-132.463 16.894-63.142 33.783-89.392 105.055-90.479 108.072l-5.635 15.648 16.146 3.994c1.609.398 22.106 5.319 50.266 5.319 26.322 0 59.341-4.305 89.848-20.628 21.224-11.356 38.274-26.948 51.607-42.759-5.31 46.772-7.938 86.503-9.042 106.292 4.721-.641 9.495-.974 14.316-.974 5.297.001 10.539.4 15.716 1.174z"/><path d="m400.307 479.743c10.037 0 19.972-1.869 29.466-5.802 48.603-20.132 67.184-86.714 41.502-148.715-20.664-49.888-63.696-81.613-105.038-81.613-10.038 0-19.971 1.868-29.466 5.802-13.729 5.687-25.056 15.084-33.673 27.033 2.999 3.159 5.883 6.499 8.645 10.022 22.076 28.161 34.233 65.188 34.233 104.26 0 21.955-3.839 43.265-11.12 62.719 19.694 16.782 42.823 26.294 65.451 26.294z"/><ellipse cx="220.912" cy="390.729" rx="95.064" ry="121.271"/></g></svg>